<svg xmlns="http://www.w3.org/2000/svg" width="2531" height="1734" viewBox="0 0 2531 1734" version="1.1"><path d="M 1268.500 351.518 C 1264.100 352.208, 1258.133 353.724, 1255.239 354.886 C 1252.346 356.049, 1248.508 357, 1246.711 357 C 1242.553 357, 1230.274 362.896, 1227 366.465 C 1225.625 367.964, 1223.256 369.837, 1221.735 370.628 C 1220.214 371.420, 1215.489 374.664, 1211.235 377.838 C 1206.981 381.012, 1201.877 384.594, 1199.894 385.797 C 1195.201 388.645, 1188.413 395.974, 1183.498 403.500 C 1178.610 410.986, 1171.359 420.060, 1168.878 421.798 C 1167.468 422.785, 1167 424.355, 1167 428.092 C 1167 430.830, 1166.345 434.069, 1165.545 435.290 C 1164.745 436.511, 1163.347 441.783, 1162.438 447.005 L 1160.786 456.500 1163.469 463.500 C 1164.944 467.350, 1166.736 473.086, 1167.451 476.248 C 1168.166 479.409, 1169.234 482.576, 1169.823 483.287 C 1170.413 483.997, 1171.347 486.361, 1171.898 488.539 C 1173.560 495.102, 1177.087 504.403, 1178.520 506.005 C 1181.556 509.399, 1185.223 525.193, 1185.484 536 C 1185.693 544.662, 1186.198 547.627, 1188.369 552.940 C 1190.023 556.988, 1191 561.270, 1191 564.472 C 1191 567.273, 1191.699 572.025, 1192.554 575.032 C 1193.409 578.039, 1194.579 585.675, 1195.153 592 C 1195.757 598.652, 1196.944 605.186, 1197.967 607.500 C 1198.941 609.700, 1200.017 613.353, 1200.359 615.618 C 1200.701 617.882, 1201.658 621.032, 1202.484 622.618 C 1203.311 624.203, 1203.990 626.936, 1203.994 628.691 C 1203.997 630.446, 1204.417 632.140, 1204.927 632.455 C 1205.437 632.770, 1206.386 634.709, 1207.035 636.764 C 1208.440 641.209, 1215.760 658.861, 1217.085 661 C 1217.596 661.825, 1219.379 664.525, 1221.048 667 C 1227.848 677.088, 1222.691 687.595, 1202.327 705.141 C 1200.641 706.594, 1197.965 708.616, 1196.380 709.635 C 1194.796 710.654, 1191.250 713.175, 1188.500 715.239 C 1185.750 717.303, 1182.993 718.993, 1182.372 718.996 C 1181.752 718.998, 1180.721 719.631, 1180.080 720.403 C 1179.440 721.175, 1176.347 723.036, 1173.208 724.539 C 1170.069 726.041, 1160.075 731.135, 1151 735.859 C 1130.907 746.316, 1110.018 756.159, 1101.688 759.094 C 1098.285 760.293, 1093.413 762.272, 1090.861 763.493 C 1083.419 767.053, 1071.180 770.815, 1055.195 774.456 C 1031.280 779.902, 1018.034 786.661, 1002.864 801.158 C 995.628 808.074, 991.719 813.730, 984.664 827.500 C 978.604 839.326, 976.233 847.430, 975.449 859 C 975.094 864.225, 974.391 870.149, 973.887 872.165 C 973.382 874.181, 972.755 882.281, 972.493 890.165 C 971.966 906.059, 971.304 911.694, 969.860 912.587 C 969.328 912.915, 967.861 915.505, 966.598 918.342 C 965.336 921.179, 962.626 925.686, 960.576 928.357 C 958.527 931.028, 955.457 935.528, 953.755 938.357 C 952.054 941.186, 949.227 945.300, 947.474 947.500 C 945.721 949.700, 943.942 952.625, 943.521 954 C 943.100 955.375, 942.358 956.998, 941.873 957.608 C 940.947 958.771, 937.583 968.043, 935.925 974 C 933.639 982.219, 930.640 991.732, 929.381 994.756 C 928.636 996.547, 926.598 1003.522, 924.852 1010.256 C 920.353 1027.606, 918.504 1034.134, 917.275 1037 C 912.252 1048.714, 911.001 1051.932, 911.008 1053.125 C 911.012 1053.881, 909.261 1058.100, 907.115 1062.500 C 904.970 1066.900, 902.091 1072.975, 900.717 1076 C 895.421 1087.662, 894.303 1089.755, 885.500 1104.506 C 883.300 1108.192, 880.884 1112.399, 880.132 1113.854 C 879.380 1115.309, 877.307 1118.750, 875.527 1121.500 C 869.333 1131.066, 868.501 1132.526, 866.700 1137 C 862.481 1147.484, 859.973 1154.983, 858.170 1162.500 C 855.630 1173.096, 850.987 1186.753, 846.781 1196 C 844.904 1200.125, 842.102 1207.550, 840.553 1212.500 C 839.004 1217.450, 837.088 1222.246, 836.296 1223.158 C 834.937 1224.724, 829 1243.553, 829 1246.299 C 829 1247.002, 828.086 1249.360, 826.970 1251.539 C 825.853 1253.717, 824.510 1258.502, 823.984 1262.172 C 823.459 1265.841, 822.328 1270.910, 821.470 1273.437 C 819.067 1280.513, 816.361 1291.721, 815.055 1300 C 813.662 1308.830, 810.257 1324.236, 808.755 1328.500 C 808.174 1330.150, 807.416 1335.609, 807.070 1340.631 C 806.725 1345.653, 805.906 1350.408, 805.251 1351.197 C 804.597 1351.986, 803.756 1355.224, 803.384 1358.392 C 803.011 1361.560, 801.873 1365.788, 800.853 1367.788 C 799.834 1369.787, 799 1372.171, 799 1373.084 C 799 1373.998, 798.145 1376.715, 797.099 1379.123 C 796.054 1381.530, 794.901 1385.525, 794.537 1388 C 793.894 1392.374, 793.493 1393.521, 789.298 1403 C 782.990 1417.253, 778.624 1442.362, 781.776 1446.262 C 782.326 1446.943, 783.107 1449.975, 783.512 1453 C 783.917 1456.025, 784.868 1459.388, 785.624 1460.473 C 786.381 1461.557, 787 1463.492, 787 1464.772 C 787 1466.052, 787.748 1468.539, 788.663 1470.300 C 789.577 1472.060, 790.892 1476.200, 791.584 1479.500 C 794.997 1495.761, 797.512 1504.531, 801.126 1512.777 C 802.157 1515.129, 803 1517.841, 803 1518.804 C 803 1519.767, 803.610 1521.443, 804.354 1522.527 C 805.099 1523.612, 805.957 1525.625, 806.259 1527 C 807.451 1532.414, 813.248 1544.569, 818.340 1552.333 C 821.287 1556.825, 825.311 1563.200, 827.283 1566.500 C 832.109 1574.575, 842.461 1584.206, 850.759 1588.339 C 861.652 1593.765, 864.563 1595.604, 876.840 1604.810 C 896.406 1619.481, 919.629 1631.036, 936.469 1634.479 C 947.643 1636.763, 968.886 1637.541, 982.300 1636.158 C 988.460 1635.523, 1000.700 1634.578, 1009.500 1634.059 C 1018.300 1633.539, 1028.200 1632.439, 1031.500 1631.615 C 1053.960 1626.003, 1065.046 1622.543, 1073.738 1618.431 C 1078.295 1616.275, 1086.869 1614, 1090.437 1614 C 1092.214 1614, 1095.992 1622.579, 1096.064 1626.777 C 1096.179 1633.427, 1099.454 1649.524, 1101.250 1652.262 C 1102.213 1653.729, 1103 1655.776, 1103 1656.810 C 1103 1657.844, 1103.848 1659.457, 1104.884 1660.395 C 1105.920 1661.333, 1107.325 1664.215, 1108.006 1666.800 C 1108.686 1669.385, 1110.088 1673.330, 1111.122 1675.566 C 1112.155 1677.802, 1113 1680.608, 1113 1681.801 C 1113 1682.995, 1113.451 1685.890, 1114.001 1688.236 C 1114.552 1690.581, 1115.875 1697.675, 1116.942 1704 C 1118.009 1710.325, 1119.973 1719.100, 1121.306 1723.500 L 1123.731 1731.500 1118.615 1732.087 C 1115.802 1732.410, 1240.625 1732.680, 1396 1732.687 C 1551.375 1732.694, 1677.314 1732.518, 1675.864 1732.295 C 1673.391 1731.914, 1673.148 1731.380, 1671.955 1723.695 C 1671.255 1719.188, 1670.079 1714.052, 1669.341 1712.282 C 1668.604 1710.512, 1667.985 1708.037, 1667.966 1706.782 C 1667.947 1705.527, 1667.063 1702.700, 1666 1700.500 C 1664.937 1698.300, 1664.053 1695.634, 1664.034 1694.575 C 1663.998 1692.513, 1659.778 1679.455, 1657.548 1674.500 C 1656.805 1672.850, 1654.289 1666.550, 1651.956 1660.500 C 1649.624 1654.450, 1646.204 1646.281, 1644.358 1642.346 C 1642.511 1638.411, 1641.027 1634.586, 1641.059 1633.846 C 1641.091 1633.106, 1642.183 1630.475, 1643.484 1628 C 1644.785 1625.525, 1647.431 1620.234, 1649.364 1616.242 C 1654.609 1605.408, 1656.080 1605.493, 1662.793 1617.026 C 1667.590 1625.266, 1670.893 1627.209, 1681.112 1627.800 C 1693.425 1628.513, 1706.838 1626.456, 1723.500 1621.300 C 1739.731 1616.277, 1745.992 1612.809, 1748.177 1607.633 C 1750.973 1601.012, 1748.750 1554.331, 1745.100 1543 C 1741.243 1531.025, 1740.002 1521.554, 1739.946 1503.640 C 1739.894 1486.965, 1739.139 1477.279, 1737.013 1466 C 1735.661 1458.829, 1735.734 1406.746, 1737.103 1401.500 C 1737.677 1399.300, 1738.507 1379.662, 1738.947 1357.859 C 1739.387 1336.057, 1740.070 1317.696, 1740.465 1317.057 C 1741.940 1314.670, 1738.981 1276.891, 1736.466 1266 C 1733.235 1252.008, 1729.826 1240.124, 1726.427 1231 C 1723.746 1223.806, 1723.624 1222.685, 1723.428 1203.500 C 1723.086 1169.962, 1721.210 1159.949, 1711.099 1137.698 C 1707.300 1129.339, 1703.905 1120.475, 1703.553 1118 C 1703.201 1115.525, 1702.280 1110.575, 1701.505 1107 C 1698.149 1091.512, 1697.078 1083.357, 1695.992 1065 C 1695.357 1054.275, 1694.199 1043.281, 1693.419 1040.568 C 1692.638 1037.856, 1692 1033.976, 1692 1031.946 C 1692 1022.837, 1685.554 1008.921, 1673.497 992 C 1654.555 965.417, 1655.563 967.939, 1656.373 949.137 C 1656.739 940.667, 1657.512 931.853, 1658.092 929.550 C 1661.128 917.493, 1656.244 885.040, 1648.867 868.250 C 1647.840 865.913, 1646.061 861.863, 1644.913 859.250 C 1641.547 851.592, 1638.906 846.916, 1634.038 840 C 1631.521 836.425, 1628.724 832.375, 1627.821 831 C 1622.066 822.234, 1599.065 803.032, 1586.671 796.646 C 1568.365 787.215, 1555.449 782.411, 1533.552 776.892 C 1521.720 773.909, 1513.941 771.261, 1503 766.491 C 1499.975 765.173, 1496.375 763.787, 1495 763.412 C 1492.018 762.598, 1469.150 751.375, 1456.500 744.517 C 1443.112 737.259, 1435.085 732.210, 1429.500 727.535 C 1426.750 725.233, 1423.100 722.384, 1421.388 721.205 C 1416.453 717.805, 1407.580 706.174, 1403.685 698 C 1401.719 693.875, 1399.629 687.474, 1399.040 683.775 C 1398.451 680.077, 1397.494 675.802, 1396.912 674.275 C 1393.575 665.515, 1393.951 614.622, 1397.401 608.189 C 1398.194 606.710, 1399.081 604.733, 1399.373 603.795 C 1399.664 602.858, 1401.713 601.167, 1403.925 600.038 C 1409.705 597.090, 1414.622 591.771, 1417.144 585.740 C 1418.349 582.858, 1420.035 579.679, 1420.889 578.677 C 1422.445 576.851, 1423.825 572.737, 1426.654 561.500 C 1427.484 558.200, 1428.812 554.288, 1429.605 552.807 C 1430.397 551.326, 1431.563 545.476, 1432.197 539.807 C 1433.732 526.060, 1432.481 521.615, 1426.088 518.098 C 1422.088 515.898, 1421.201 515.770, 1416.588 516.724 C 1407.910 518.520, 1408.004 518.727, 1407.976 497.715 C 1407.953 480.632, 1407.470 475.621, 1405.017 467 C 1404.469 465.075, 1403.571 453.375, 1403.022 441 C 1401.795 413.351, 1400.600 408.495, 1392.770 399.336 C 1389.871 395.946, 1386.375 391.287, 1385 388.982 C 1381.861 383.721, 1375.993 378.807, 1364.500 371.810 C 1359.550 368.797, 1352.575 364.542, 1349 362.355 C 1339.120 356.310, 1333.231 354.185, 1320.314 352.005 C 1306.601 349.690, 1281.646 349.455, 1268.500 351.518 M 1061.957 1077.750 C 1059.353 1083.536, 1057.403 1089.558, 1055.561 1097.500 C 1054.796 1100.800, 1052.981 1106.425, 1051.528 1110 C 1050.074 1113.575, 1048.541 1117.400, 1048.119 1118.500 C 1047.698 1119.600, 1045.039 1125.225, 1042.212 1131 C 1039.384 1136.775, 1036.145 1144.425, 1035.015 1148 C 1033.884 1151.575, 1031.867 1156.300, 1030.534 1158.500 C 1029.200 1160.700, 1027.345 1163.850, 1026.412 1165.500 C 1025.479 1167.150, 1022.659 1171.650, 1020.147 1175.500 C 1017.634 1179.350, 1014.599 1184.525, 1013.403 1187 C 1008.924 1196.266, 1006 1202.906, 1006 1203.811 C 1006 1204.719, 1004.142 1209.205, 999.505 1219.500 C 998.266 1222.250, 994.833 1228.775, 991.876 1234 C 983.639 1248.556, 979 1258.809, 979 1262.460 C 979 1265.191, 972.311 1278.194, 966.186 1287.368 C 962.218 1293.312, 961.595 1294.948, 961.551 1299.533 C 961.523 1302.446, 961.760 1305.090, 962.078 1305.409 C 962.395 1305.728, 965.995 1305.462, 970.078 1304.819 C 979.795 1303.287, 990.006 1303.558, 994.578 1305.468 C 996.595 1306.311, 999.202 1307.002, 1000.372 1307.004 C 1001.542 1307.006, 1004 1307.922, 1005.832 1309.039 C 1011.080 1312.238, 1018.414 1314.761, 1033.340 1318.499 C 1041.891 1320.641, 1050.167 1323.461, 1054.999 1325.880 C 1059.300 1328.032, 1064.656 1330.104, 1066.901 1330.483 C 1069.145 1330.862, 1072.787 1332.045, 1074.993 1333.111 C 1078.641 1334.873, 1079.265 1334.914, 1081.881 1333.561 C 1083.463 1332.743, 1085.031 1331.361, 1085.366 1330.490 C 1085.700 1329.618, 1087.265 1328.455, 1088.843 1327.905 C 1090.422 1327.355, 1092.324 1325.762, 1093.071 1324.367 C 1093.818 1322.971, 1095.698 1321.173, 1097.248 1320.372 C 1099.054 1319.438, 1100.283 1317.836, 1100.667 1315.915 C 1100.997 1314.265, 1103.007 1311.267, 1105.133 1309.252 C 1107.434 1307.072, 1109 1304.659, 1109 1303.294 C 1109 1302.032, 1109.461 1301, 1110.025 1301 C 1110.588 1301, 1111.519 1299.763, 1112.092 1298.250 C 1112.665 1296.737, 1114.496 1294.150, 1116.160 1292.500 C 1120.142 1288.552, 1128 1278.391, 1128 1277.190 C 1128 1276.670, 1128.636 1275.717, 1129.414 1275.072 C 1130.191 1274.426, 1131.766 1272.009, 1132.913 1269.699 C 1134.060 1267.390, 1135.889 1264.375, 1136.976 1263 C 1139.357 1259.990, 1141.658 1239.733, 1140.545 1231.585 C 1140.162 1228.788, 1139.870 1226.050, 1139.894 1225.500 C 1140.887 1203.216, 1140.751 1198.347, 1138.936 1191.249 C 1137.338 1185.002, 1133.426 1175.951, 1128.966 1168.182 C 1128.435 1167.257, 1127.549 1165.375, 1126.997 1164 C 1125.300 1159.776, 1118.926 1148.599, 1117.165 1146.762 C 1113.231 1142.657, 1111.814 1140.956, 1103.870 1130.805 C 1094.844 1119.271, 1086.006 1106.942, 1084.027 1103.125 C 1083.350 1101.818, 1081.343 1098.847, 1079.569 1096.522 C 1077.794 1094.197, 1074.230 1087.953, 1071.648 1082.647 C 1068.966 1077.132, 1066.343 1073, 1065.524 1073 C 1064.737 1073, 1063.132 1075.138, 1061.957 1077.750 M 1545.331 1074.693 C 1544.324 1075.713, 1542.659 1078.338, 1541.631 1080.524 C 1538.070 1088.100, 1535.201 1094.514, 1534.038 1097.500 C 1533.100 1099.906, 1525.771 1113.164, 1521.046 1121 C 1519.118 1124.198, 1516.116 1131.744, 1514.682 1137 C 1512.057 1146.618, 1510.632 1175.058, 1511.329 1203.929 C 1511.902 1227.672, 1512.233 1231.511, 1514.435 1240 C 1517.198 1250.650, 1520.544 1260.722, 1521.873 1262.392 C 1522.358 1263.002, 1523.066 1264.625, 1523.446 1266 C 1523.825 1267.375, 1525.643 1272.100, 1527.486 1276.500 C 1534.883 1294.163, 1537.171 1304.146, 1537.542 1320.381 C 1537.798 1331.589, 1539.188 1340.042, 1541.206 1342.664 C 1543.393 1345.505, 1547.150 1360.208, 1547.680 1368 L 1548.259 1376.500 1554.474 1383 C 1561.595 1390.448, 1562.615 1393.029, 1563.362 1405.500 C 1564.108 1417.936, 1570.149 1434.707, 1579.573 1450.500 C 1580.886 1452.700, 1582.248 1455.175, 1582.601 1456 C 1582.953 1456.825, 1584.106 1459.370, 1585.164 1461.656 C 1588.963 1469.865, 1591.136 1479.456, 1591.699 1490.500 C 1592.222 1500.762, 1592.494 1501.902, 1595.753 1507.500 C 1597.674 1510.800, 1599.485 1515.300, 1599.778 1517.500 C 1600.071 1519.700, 1600.868 1522.400, 1601.551 1523.500 C 1602.233 1524.600, 1603.109 1526.559, 1603.496 1527.853 C 1604.331 1530.645, 1607.688 1535.723, 1610.539 1538.508 C 1615.569 1543.423, 1620.185 1547.004, 1620.911 1546.555 C 1621.346 1546.286, 1621.542 1539.021, 1621.346 1530.410 C 1621.026 1516.366, 1621.186 1514.431, 1622.903 1511.627 C 1623.956 1509.907, 1625.306 1506.700, 1625.904 1504.500 C 1626.502 1502.300, 1629.468 1497.432, 1632.496 1493.683 C 1635.523 1489.934, 1638 1486.369, 1638 1485.762 C 1638 1485.154, 1638.651 1483.938, 1639.446 1483.059 C 1640.242 1482.180, 1641.857 1477.195, 1643.037 1471.981 C 1645.270 1462.106, 1645.280 1462.682, 1642.541 1443 C 1642.273 1441.075, 1641.808 1437.025, 1641.507 1434 C 1641.207 1430.975, 1640.316 1426.475, 1639.529 1424 C 1638.742 1421.525, 1637.791 1417.700, 1637.415 1415.500 C 1637.040 1413.300, 1636.178 1410.375, 1635.500 1409 C 1634.822 1407.625, 1633.942 1404.700, 1633.544 1402.500 C 1633.146 1400.300, 1632.385 1397.973, 1631.853 1397.328 C 1630.785 1396.035, 1628.363 1389.913, 1623.811 1377 C 1622.163 1372.325, 1619.723 1366.190, 1618.390 1363.368 C 1617.057 1360.545, 1615.117 1355.145, 1614.080 1351.368 C 1613.042 1347.590, 1611.704 1343.150, 1611.106 1341.500 C 1608.973 1335.614, 1604.995 1321.412, 1604.027 1316.223 C 1603.485 1313.321, 1602.582 1310.088, 1602.021 1309.039 C 1601.459 1307.990, 1601 1304.698, 1601 1301.725 C 1601 1298.751, 1600.319 1294.109, 1599.488 1291.409 C 1598.656 1288.709, 1597.693 1280.650, 1597.349 1273.500 C 1596.972 1265.683, 1596.175 1259.415, 1595.350 1257.778 C 1594.595 1256.280, 1593.598 1251.310, 1593.134 1246.733 C 1592.670 1242.156, 1591.782 1237.460, 1591.160 1236.299 C 1590.538 1235.137, 1589.546 1229.850, 1588.955 1224.550 C 1588.364 1219.249, 1587.298 1213.245, 1586.586 1211.206 C 1585.874 1209.168, 1584.733 1204.350, 1584.050 1200.500 C 1583.368 1196.650, 1581.908 1190.125, 1580.806 1186 C 1579.704 1181.875, 1578.404 1175.913, 1577.916 1172.752 C 1577.428 1169.590, 1576.347 1165.373, 1575.514 1163.380 C 1574.681 1161.387, 1574 1159.016, 1574 1158.112 C 1574 1157.208, 1573.092 1154.901, 1571.981 1152.984 C 1568.540 1147.044, 1566.956 1143.062, 1564.883 1135.141 C 1560.978 1120.223, 1560.152 1117.415, 1557.484 1110 C 1556 1105.875, 1554.339 1101.950, 1553.793 1101.277 C 1553.247 1100.604, 1552.800 1097.239, 1552.800 1093.797 C 1552.800 1090.356, 1552.119 1085.839, 1551.287 1083.758 C 1550.454 1081.678, 1550 1079.107, 1550.278 1078.045 C 1550.572 1076.922, 1550.026 1075.428, 1548.973 1074.475 C 1547.292 1072.954, 1547.032 1072.969, 1545.331 1074.693" stroke="none" fill="white" class="suc"  fill-rule="evenodd"/></svg>