<svg width="400px" height="100%" id="svg" viewBox="0 0 1440 390" xmlns="http://www.w3.org/2000/svg" class="transition duration-300 ease-in-out delay-150"><defs><linearGradient id="gradient" x1="100%" y1="49%" x2="0%" y2="51%"><stop offset="5%" stop-color="#3bc9db"></stop><stop offset="95%" stop-color="#000000"></stop></linearGradient></defs><path d="M 0,400 L 0,300 C 91.28717948717949,284.86538461538464 182.57435897435897,269.7307692307692 255,262 C 327.425641025641,254.26923076923077 380.9897435897435,253.9423076923077 462,235 C 543.0102564102565,216.0576923076923 651.4666666666666,178.5 735,143 C 818.5333333333334,107.5 877.1435897435899,74.0576923076923 961,60 C 1044.85641025641,45.94230769230769 1153.9589743589743,51.269230769230774 1238,32 C 1322.0410256410257,12.73076923076923 1381.020512820513,-31.134615384615387 1440,-75 L 1440,400 L 0,400 Z" stroke="none" stroke-width="0" fill="url(#gradient)" fill-opacity="0.4" class="transition-all duration-300 ease-in-out delay-150 path-0" transform="rotate(-180 720 200)"></path><defs><linearGradient id="gradient" x1="100%" y1="49%" x2="0%" y2="51%"><stop offset="5%" stop-color="#3bc9db"></stop><stop offset="95%" stop-color="#000000"></stop></linearGradient></defs><path d="M 0,400 L 0,400 C 89.9769230769231,414.2320512820513 179.9538461538462,428.4641025641026 247,404 C 314.0461538461538,379.5358974358974 358.1615384615385,316.3756410256411 437,288 C 515.8384615384615,259.6243589743589 629.4,266.0333333333333 728,243 C 826.6,219.96666666666667 910.2384615384617,167.49102564102566 985,144 C 1059.7615384615383,120.50897435897436 1125.6461538461538,126.0025641025641 1200,111 C 1274.3538461538462,95.9974358974359 1357.1769230769232,60.49871794871795 1440,25 L 1440,400 L 0,400 Z" stroke="none" stroke-width="0" fill="url(#gradient)" fill-opacity="0.53" class="transition-all duration-300 ease-in-out delay-150 path-1" transform="rotate(-180 720 200)"></path><defs><linearGradient id="gradient" x1="100%" y1="49%" x2="0%" y2="51%"><stop offset="5%" stop-color="#3bc9db"></stop><stop offset="95%" stop-color="#000000"></stop></linearGradient></defs><path d="M 0,400 L 0,500 C 76.65128205128204,515.2423076923077 153.30256410256408,530.4846153846154 246,525 C 338.6974358974359,519.5153846153846 447.4410256410258,493.30384615384617 523,458 C 598.5589743589742,422.69615384615383 640.9333333333332,378.29999999999995 704,338 C 767.0666666666668,297.70000000000005 850.8256410256412,261.49615384615385 937,247 C 1023.1743589743588,232.50384615384615 1111.7641025641024,239.7153846153846 1196,223 C 1280.2358974358976,206.2846153846154 1360.1179487179488,165.6423076923077 1440,125 L 1440,400 L 0,400 Z" stroke="none" stroke-width="0" fill="url(#gradient)" fill-opacity="1" class="transition-all duration-300 ease-in-out delay-150 path-2" transform="rotate(-180 720 200)"></path></svg>